# 3ds Max Wavefront OBJ Exporter v0.97b - (c)2007 guruware
# File Created: 28.02.2019 12:52:40

mtllib ??.mtl

#
# object default
#

v  3.0934 0.0316 3.5046
v  3.0934 10.5313 3.5046
v  -3.0934 10.5313 3.5046
v  -3.0934 0.0316 3.5046
v  3.0934 10.5313 -3.5046
v  -3.0934 10.5313 -3.5046
v  3.0934 0.0316 -3.5046
v  -3.0934 0.0316 -3.5046
# 8 vertices

vn 0.0000 0.0000 1.0000
vn 0.0000 1.0000 -0.0000
vn 0.0000 0.0000 -1.0000
vn 0.0000 -1.0000 -0.0000
vn 1.0000 0.0000 -0.0000
vn -1.0000 0.0000 -0.0000
# 6 vertex normals

vt 0.4224 0.2910 0.0000
vt 0.4224 0.9935 0.0000
vt 0.0085 0.9935 0.0000
vt 0.0085 0.2910 0.0000
vt 0.5880 0.2788 0.0000
vt 0.2274 0.2788 0.0000
vt 0.2274 0.0069 0.0000
vt 0.5880 0.0069 0.0000
vt 0.6288 0.6231 0.0000
vt 0.6288 0.0069 0.0000
vt 0.9919 0.0069 0.0000
vt 0.9919 0.6231 0.0000
vt 0.2145 0.0069 0.0000
vt 0.2145 0.2737 0.0000
vt 0.0134 0.2737 0.0000
vt 0.0134 0.0069 0.0000
vt -0.0077 0.6313 0.0000
vt -0.4711 0.6313 0.0000
vt -0.4711 0.9935 0.0000
vt -0.0077 0.9935 0.0000
vt 0.9923 0.6313 0.0000
vt 0.5289 0.6313 0.0000
vt 0.5289 0.9935 0.0000
vt 0.9923 0.9935 0.0000
# 24 texture coords

g default
usemtl lambert3SG
s off
f 1/1/1 2/2/1 3/3/1 4/4/1 
f 2/5/2 5/6/2 6/7/2 3/8/2 
f 5/9/3 7/10/3 8/11/3 6/12/3 
f 7/13/4 1/14/4 4/15/4 8/16/4 
f 7/17/5 5/18/5 2/19/5 1/20/5 
f 4/21/6 3/22/6 6/23/6 8/24/6 
# 6 polygons

