# This file uses centimeters as units for non-parametric coordinates.

mtllib outdoor_building_ljz_01.mtl
g outdoor_building_ljz_01_default1
v 229.455551 187.126587 -595.811462
v 305.619965 187.126587 -461.776337
v 266.081085 187.126587 -595.811462
v 305.619995 187.126587 -583.149902
v 266.081085 187.126587 -583.149902
v 229.455551 187.126587 -474.363831
v 266.081085 187.126587 -461.776367
v 266.081085 187.126587 -474.363831
v 270.467743 187.126587 -461.776367
v 270.467743 200.541916 -461.776367
v 305.619965 187.126587 -461.776337
v 305.619995 187.126587 -583.149902
v 305.619995 200.541916 -583.149902
v 305.619965 200.541916 -461.776337
v 270.467743 187.126587 -583.149902
v 270.467743 200.541916 -583.149902
v 270.467743 187.126587 -461.776367
v 270.467743 200.541916 -461.776367
v 270.467743 200.541916 -583.149902
v 270.467743 187.126587 -583.149902
v 321.467102 18.363909 -482.249725
v 321.467102 18.363909 -595.811462
v 321.467102 27.641020 -482.249725
v 321.467102 27.641020 -595.811462
v 266.081085 27.641020 -482.249725
v 266.081085 27.641020 -595.811462
v 266.081085 18.363909 -482.249725
v 266.081085 18.363909 -595.811462
v 263.112274 187.126587 -595.811462
v 263.112274 200.541916 -595.811462
v 263.112274 200.541916 -474.363831
v 263.112274 187.126587 -474.363831
v 263.112274 187.126587 -474.363831
v 263.112274 200.541916 -474.363831
v 229.455551 200.541916 -474.363831
v 229.455551 187.126587 -474.363831
v 229.455551 200.541916 -595.811462
v 229.455551 187.126587 -595.811462
v 263.112274 187.126587 -595.811462
v 263.112274 200.541916 -595.811462
vt 0.780909 0.000622
vt 0.900559 0.000622
vt 0.900559 0.039879
vt 0.912881 0.039879
vt 0.912881 0.076736
vt 0.793159 0.076736
vt 0.793159 0.039373
vt 0.780909 0.039373
vt 0.003572 0.858684
vt 0.923230 0.858684
vt 0.923230 1.001156
vt 0.003572 1.001156
vt 0.373655 0.706222
vt 0.667450 0.706222
vt 0.667450 0.848694
vt 0.373655 0.848694
vt 0.667450 0.706222
vt 0.667450 0.848694
vt 0.373655 0.848694
vt 0.373655 0.706222
vt 0.056553 0.858684
vt 0.968601 0.858684
vt 0.968601 1.001156
vt 0.056553 1.001156
vt 0.609575 0.245582
vt 0.764520 0.245582
vt 0.764520 0.513746
vt 0.609575 0.513746
vt 0.454716 0.000651
vt 0.607920 0.000651
vt 0.607920 0.077275
vt 0.454716 0.077275
vt 0.839450 0.245582
vt 0.993304 0.245582
vt 0.993304 0.513746
vt 0.839450 0.513746
vt 0.839450 0.245582
vt 0.993304 0.245582
vt 0.993304 0.513746
vt 0.839450 0.513746
vt 0.056553 0.858684
vt 0.968601 0.858684
vt 0.968601 1.001156
vt 0.056553 1.001156
vt 0.373655 0.706222
vt 0.667450 0.706222
vt 0.667450 0.848694
vt 0.373655 0.848694
vt 0.923230 0.858684
vt 0.923230 1.001156
vt 0.003572 1.001156
vt 0.003572 0.858684
vt 0.373655 0.706222
vt 0.667450 0.706222
vt 0.667450 0.848694
vt 0.373655 0.848694
vn 0.000000 1.000000 0.000000
vn 0.000000 1.000000 0.000000
vn 0.000000 1.000000 0.000000
vn 0.000000 1.000000 0.000000
vn 0.000000 1.000000 0.000000
vn 0.000000 1.000000 0.000000
vn 0.000000 1.000000 0.000000
vn 0.000000 1.000000 0.000000
vn 1.000000 0.000000 0.000000
vn 1.000000 0.000000 0.000000
vn 1.000000 0.000000 0.000000
vn 1.000000 0.000000 0.000000
vn 0.000000 0.000000 -1.000000
vn 0.000000 0.000000 -1.000000
vn 0.000000 0.000000 -1.000000
vn 0.000000 0.000000 -1.000000
vn 0.000000 0.000000 1.000000
vn 0.000000 0.000000 1.000000
vn 0.000000 0.000000 1.000000
vn 0.000000 0.000000 1.000000
vn -1.000000 0.000000 -0.000000
vn -1.000000 0.000000 -0.000000
vn -1.000000 0.000000 -0.000000
vn -1.000000 0.000000 -0.000000
vn 1.000000 0.000000 0.000000
vn 1.000000 0.000000 0.000000
vn 1.000000 0.000000 0.000000
vn 1.000000 0.000000 0.000000
vn 0.000000 1.000000 0.000000
vn 0.000000 1.000000 0.000000
vn 0.000000 1.000000 0.000000
vn 0.000000 1.000000 0.000000
vn 0.000000 0.000000 -1.000000
vn 0.000000 0.000000 -1.000000
vn 0.000000 0.000000 -1.000000
vn 0.000000 0.000000 -1.000000
vn 0.000000 0.000000 1.000000
vn 0.000000 0.000000 1.000000
vn 0.000000 0.000000 1.000000
vn 0.000000 0.000000 1.000000
vn 1.000000 0.000000 0.000000
vn 1.000000 0.000000 0.000000
vn 1.000000 0.000000 0.000000
vn 1.000000 0.000000 0.000000
vn 0.000000 0.000000 1.000000
vn 0.000000 0.000000 1.000000
vn 0.000000 0.000000 1.000000
vn 0.000000 0.000000 1.000000
vn -1.000000 0.000000 -0.000000
vn -1.000000 0.000000 -0.000000
vn -1.000000 0.000000 -0.000000
vn -1.000000 0.000000 -0.000000
vn 0.000000 0.000000 -1.000000
vn 0.000000 0.000000 -1.000000
vn 0.000000 0.000000 -1.000000
vn 0.000000 0.000000 -1.000000
s off
g outdoor_building_ljz_01_pCube39 outdoor_building_ljz_01_polySurface1 outdoor_building_ljz_01_polySurface3 outdoor_building_ljz_01_polySurface4 outdoor_building_ljz_01_polySurface8 polySurface22 polySurface24 polySurface1
usemtl outdoor_building_ljz_01_lambert2SG
f 2/1/1 4/2/2 5/3/3 3/4/4 1/5/5 6/6/6 8/7/7 7/8/8
g outdoor_building_ljz_01_polySurface1 outdoor_building_ljz_01_polySurface3 outdoor_building_ljz_01_polySurface16 polySurface22 polySurface24 polySurface1
f 11/9/9 12/10/10 13/11/11 14/12/12
f 12/13/13 15/14/14 16/15/15 13/16/16
f 11/17/17 14/18/18 10/19/19 9/20/20
f 20/21/21 17/22/22 18/23/23 19/24/24
g outdoor_building_ljz_01_pCube40 outdoor_building_ljz_01_polySurface1 outdoor_building_ljz_01_polySurface3 outdoor_building_ljz_01_polySurface18 outdoor_building_ljz_01_polySurface20 polySurface22 polySurface24 polySurface1
f 21/25/25 22/26/26 24/27/27 23/28/28
f 23/29/29 24/30/30 26/31/31 25/32/32
f 22/33/33 28/34/34 26/35/35 24/36/36
f 27/37/37 21/38/38 23/39/39 25/40/40
g outdoor_building_ljz_01_polySurface1 outdoor_building_ljz_01_polySurface3 outdoor_building_ljz_01_polySurface14 polySurface22 polySurface24 polySurface1
f 32/41/41 29/42/42 30/43/43 31/44/44
f 36/45/45 33/46/46 34/47/47 35/48/48
f 36/49/49 35/50/50 37/51/51 38/52/52
f 39/53/53 38/54/54 37/55/55 40/56/56
g outdoor_building_ljz_01_default1
v 305.619965 -6.700345 -461.776337
v 266.081085 -6.700345 -461.776367
v 266.081085 -6.700345 -595.811462
v 229.455551 -6.700345 -595.811462
v 305.619995 -6.700345 -583.149902
v 266.081085 -6.700345 -583.149902
v 229.455551 -6.700345 -474.363831
v 266.081085 -6.700345 -474.363831
v 305.619965 187.126587 -461.776337
v 266.081085 187.126587 -461.776367
v 229.455551 187.126587 -595.811462
v 266.081085 187.126587 -595.811462
v 305.619995 187.126587 -583.149902
v 266.081085 187.126587 -583.149902
v 229.455551 187.126587 -474.363831
v 266.081085 187.126587 -474.363831
vt 0.156120 0.988741
vt 0.006126 0.988741
vt 0.006126 0.015781
vt 0.156120 0.015781
vt 0.156120 0.988741
vt 0.006126 0.988741
vt 0.006126 0.015781
vt 0.156120 0.015781
vt 0.974553 0.988741
vt 0.290568 0.988741
vt 0.290568 0.016257
vt 0.974553 0.016257
vt 0.156120 0.988741
vt 0.006126 0.988741
vt 0.006126 0.015781
vt 0.156120 0.015781
vt 0.678458 0.988741
vt 0.606859 0.988741
vt 0.606859 0.016257
vt 0.678458 0.016257
vt 0.974553 0.988741
vt 0.290568 0.988741
vt 0.290568 0.016257
vt 0.974553 0.016257
vt 0.156120 0.988741
vt 0.006126 0.988741
vt 0.006126 0.015781
vt 0.156120 0.015781
vt 0.678458 0.988741
vt 0.606859 0.988741
vt 0.606859 0.016257
vt 0.678458 0.016257
vn 0.000000 0.000000 1.000000
vn 0.000000 0.000000 1.000000
vn 0.000000 0.000000 1.000000
vn 0.000000 0.000000 1.000000
vn 0.000000 0.000000 -1.000000
vn 0.000000 0.000000 -1.000000
vn 0.000000 0.000000 -1.000000
vn 0.000000 0.000000 -1.000000
vn 1.000000 0.000000 0.000000
vn 1.000000 0.000000 0.000000
vn 1.000000 0.000000 0.000000
vn 1.000000 0.000000 0.000000
vn 0.000000 0.000000 -1.000000
vn 0.000000 0.000000 -1.000000
vn 0.000000 0.000000 -1.000000
vn 0.000000 0.000000 -1.000000
vn 1.000000 0.000000 0.000000
vn 1.000000 0.000000 0.000000
vn 1.000000 0.000000 0.000000
vn 1.000000 0.000000 0.000000
vn -1.000000 0.000000 -0.000000
vn -1.000000 0.000000 -0.000000
vn -1.000000 0.000000 -0.000000
vn -1.000000 0.000000 -0.000000
vn 0.000000 0.000000 1.000000
vn 0.000000 0.000000 1.000000
vn 0.000000 0.000000 1.000000
vn 0.000000 0.000000 1.000000
vn -1.000000 0.000000 -0.000000
vn -1.000000 0.000000 -0.000000
vn -1.000000 0.000000 -0.000000
vn -1.000000 0.000000 -0.000000
s off
g outdoor_building_ljz_01_pCube39 outdoor_building_ljz_01_polySurface1 outdoor_building_ljz_01_polySurface3 outdoor_building_ljz_01_polySurface4 outdoor_building_ljz_01_polySurface8 polySurface22 polySurface1 polySurface23
usemtl lambert5SG
f 49/57/57 50/58/58 42/59/59 41/60/60
f 51/61/61 52/62/62 43/63/63 44/64/64
f 53/65/65 49/66/66 41/67/67 45/68/68
f 54/69/69 53/70/70 45/71/71 46/72/72
f 52/73/73 54/74/74 46/75/75 43/76/76
f 55/77/77 51/78/78 44/79/79 47/80/80
f 56/81/81 55/82/82 47/83/83 48/84/84
f 50/85/85 56/86/86 48/87/87 42/88/88
