# This file uses centimeters as units for non-parametric coordinates.

mtllib outdoor_light_ljz_01.mtl
g outdoor_building_ljz_01_default1
v 321.467102 41.754089 -595.811462
v 266.081085 41.754089 -482.249725
v 266.081085 41.754089 -595.811462
v 321.467102 27.641020 -595.811462
v 266.081085 27.641020 -482.249725
v 266.081085 27.641020 -595.811462
v 321.467102 27.641020 -482.249725
v 321.467102 41.754089 -482.249725
vt 0.000000 0.000000
vt 1.000000 0.000000
vt 1.000000 0.816155
vt 0.000000 0.816155
vt 0.000000 0.000000
vt 1.000000 0.000000
vt 1.000000 0.816155
vt 0.000000 0.816155
vt 0.000000 0.000000
vt 1.000000 0.000000
vt 1.000000 0.816155
vt 0.000000 0.816155
vn 1.000000 0.000000 0.000000
vn 1.000000 0.000000 0.000000
vn 1.000000 0.000000 0.000000
vn 1.000000 0.000000 0.000000
vn 0.000000 0.000000 -1.000000
vn 0.000000 0.000000 -1.000000
vn 0.000000 0.000000 -1.000000
vn 0.000000 0.000000 -1.000000
vn 0.000000 0.000000 -1.000000
vn 0.000000 0.000000 -1.000000
vn 0.000000 0.000000 -1.000000
vn 0.000000 0.000000 -1.000000
s off
g outdoor_building_ljz_01_pCube40 outdoor_building_ljz_01_polySurface3 outdoor_building_ljz_01_polySurface19 outdoor_building_ljz_01_polySurface20 polySurface21 outdoor_building_ljz_01_polySurface1
usemtl outdoor_building_ljz_01_lambert3SG
f 7/1/1 4/2/2 1/3/3 8/4/4
f 7/5/5 5/6/6 2/7/7 8/8/8
f 4/9/9 6/10/10 3/11/11 1/12/12
