# 3ds Max Wavefront OBJ Exporter v0.97b - (c)2007 guruware
# 创建的文件:15.08.2019 11:22:07

mtllib 配楼3.mtl

#
# object 对象736
#

v  14.7307 2.1311 28.7477
v  12.8465 2.1311 28.7476
v  12.8465 2.1311 31.8961
v  14.7307 2.1311 31.8961
v  14.7307 -4.1006 28.7477
v  12.8465 -4.1006 28.7476
v  12.8465 -4.1006 31.8961
v  14.7307 -4.1006 31.8961
v  12.8675 2.1311 28.0910
v  10.9835 2.1311 28.0910
v  10.9835 2.1311 32.6565
v  12.8675 2.1311 32.6565
v  12.8675 -4.1006 28.0910
v  10.9835 -4.1006 28.0910
v  10.9835 -4.1006 32.6565
v  12.8675 -4.1006 32.6565
v  14.4621 -1.8539 34.1843
v  12.7072 -1.8539 34.1843
v  12.7072 -1.8539 36.2454
v  14.4621 -1.8539 36.2455
v  14.4621 -4.1006 34.1843
v  12.7072 -4.1006 34.1843
v  12.7072 -4.1006 36.2454
v  14.4621 -4.1006 36.2455
v  15.4984 -1.8539 34.1912
v  14.4622 -1.8539 34.1912
v  14.4622 -1.8539 35.1967
v  15.4984 -1.8539 35.1967
v  15.4984 -4.1006 34.1912
v  14.4622 -4.1006 34.1912
v  14.4622 -4.1006 35.1967
v  15.4984 -4.1006 35.1967
v  -6.7766 2.1471 42.5290
v  -9.3209 2.1471 42.5290
v  -9.3209 2.1471 46.0180
v  -6.7766 2.1471 46.0180
v  -6.7766 -4.0907 42.5290
v  -9.3209 -4.0907 42.5290
v  -9.3209 -4.0907 46.0180
v  -6.7766 -4.0907 46.0180
v  -6.4730 4.1007 39.1948
v  -9.1791 4.1007 39.1947
v  -9.1791 4.1007 40.5593
v  -6.4730 4.1007 40.5592
v  -6.4730 -4.0907 39.1949
v  -9.1791 -4.0907 39.1949
v  -9.1791 -4.0907 40.5593
v  -6.4730 -4.0907 40.5592
v  -2.2198 4.1007 39.1947
v  -4.9259 4.1007 39.1947
v  -4.9259 4.1007 40.5593
v  -2.2198 4.1007 40.5593
v  -2.2198 -4.0907 39.1949
v  -4.9259 -4.0907 39.1949
v  -4.9259 -4.0907 40.5593
v  -2.2198 -4.0907 40.5593
v  1.7030 -1.9336 34.1257
v  -0.2411 -1.9336 34.1257
v  -0.2411 -1.9336 38.0425
v  1.7029 -1.9336 38.0426
v  1.7030 -4.0907 34.1257
v  -0.2411 -4.0907 34.1257
v  -0.2411 -4.0907 38.0425
v  1.7029 -4.0907 38.0426
v  -2.3988 -2.0496 34.6024
v  -8.2805 -2.0496 34.6024
v  -8.2805 -2.0496 37.3851
v  -2.3988 -2.0496 37.3851
v  -2.3988 -4.0907 34.6024
v  -8.2805 -4.0907 34.6024
v  -8.2805 -4.0907 37.3851
v  -2.3988 -4.0907 37.3851
v  -2.3746 2.1471 42.5290
v  -4.9190 2.1471 42.5289
v  -4.9190 2.1471 46.0181
v  -2.3746 2.1471 46.0181
v  -2.3746 -4.0907 42.5290
v  -4.9190 -4.0907 42.5289
v  -4.9190 -4.0907 46.0181
v  -2.3746 -4.0907 46.0181
v  1.8812 2.1471 42.5289
v  -0.6632 2.1471 42.5290
v  -0.6632 2.1471 46.0181
v  1.8812 2.1471 46.0181
v  1.8812 -4.0907 42.5289
v  -0.6632 -4.0907 42.5290
v  -0.6632 -4.0907 46.0181
v  1.8812 -4.0907 46.0181
v  2.0052 4.1007 39.1948
v  -0.7007 4.1007 39.1947
v  -0.7007 4.1007 40.5593
v  2.0052 4.1007 40.5593
v  2.0052 -4.0907 39.1949
v  -0.7007 -4.0907 39.1949
v  -0.7007 -4.0907 40.5593
v  2.0052 -4.0907 40.5593
v  -2.4409 -3.1181 27.8475
v  -15.0452 -3.1181 27.8474
v  -15.0452 -3.1181 31.8197
v  -2.4409 -3.1181 31.8196
v  -2.4409 -4.1006 27.8475
v  -15.0452 -4.1006 27.8474
v  -15.0452 -4.1006 31.8197
v  -2.4409 -4.1006 31.8196
v  1.8811 2.1471 47.8845
v  -0.6632 2.1471 47.8845
v  -0.6632 2.1471 51.3736
v  1.8811 2.1471 51.3736
v  1.8811 -4.0907 47.8845
v  -0.6632 -4.0907 47.8845
v  -0.6632 -4.0907 51.3736
v  1.8811 -4.0907 51.3736
v  -2.3746 2.1471 47.8844
v  -4.9190 2.1471 47.8844
v  -4.9190 2.1471 51.3736
v  -2.3746 2.1471 51.3736
v  -2.3746 -4.0907 47.8844
v  -4.9190 -4.0907 47.8844
v  -4.9190 -4.0907 51.3736
v  -2.3746 -4.0907 51.3736
v  -6.7766 2.1471 47.8845
v  -9.3209 2.1471 47.8844
v  -9.3209 2.1471 51.3735
v  -6.7766 2.1471 51.3736
v  -6.7766 -4.0907 47.8845
v  -9.3209 -4.0907 47.8844
v  -9.3209 -4.0907 51.3735
v  -6.7766 -4.0907 51.3736
v  -15.6448 4.1007 39.1948
v  -18.3508 4.1007 39.1947
v  -18.3508 4.1007 40.5592
v  -15.6448 4.1007 40.5593
v  -15.6448 -4.0907 39.1949
v  -18.3508 -4.0907 39.1949
v  -18.3508 -4.0907 40.5592
v  -15.6448 -4.0907 40.5593
v  -11.5438 2.1471 42.5290
v  -14.0882 2.1471 42.5290
v  -14.0882 2.1471 46.0181
v  -11.5438 2.1471 46.0181
v  -11.5438 -4.0907 42.5290
v  -14.0882 -4.0907 42.5290
v  -14.0882 -4.0907 46.0181
v  -11.5438 -4.0907 46.0181
v  -11.7220 -1.9336 34.1256
v  -13.6661 -1.9336 34.1257
v  -13.6661 -1.9336 38.0426
v  -11.7220 -1.9336 38.0426
v  -11.7220 -4.0907 34.1256
v  -13.6661 -4.0907 34.1257
v  -13.6661 -4.0907 38.0426
v  -11.7220 -4.0907 38.0426
v  -11.4197 4.1007 39.1948
v  -14.1257 4.1007 39.1947
v  -14.1257 4.1007 40.5593
v  -11.4197 4.1007 40.5593
v  -11.4198 -4.0907 39.1949
v  -14.1257 -4.0907 39.1949
v  -14.1257 -4.0907 40.5593
v  -11.4197 -4.0907 40.5593
v  -15.7997 2.1471 42.5289
v  -18.3440 2.1471 42.5289
v  -18.3440 2.1471 46.0180
v  -15.7997 2.1471 46.0181
v  -15.7997 -4.0907 42.5289
v  -18.3440 -4.0907 42.5289
v  -18.3440 -4.0907 46.0180
v  -15.7997 -4.0907 46.0181
v  -15.7997 2.1471 47.8844
v  -18.3440 2.1471 47.8845
v  -18.3440 2.1471 51.3736
v  -15.7997 2.1471 51.3735
v  -15.7997 -4.0907 47.8844
v  -18.3440 -4.0907 47.8845
v  -18.3440 -4.0907 51.3736
v  -15.7997 -4.0907 51.3735
v  -11.5438 2.1471 47.8845
v  -14.0882 2.1471 47.8845
v  -14.0882 2.1471 51.3735
v  -11.5438 2.1471 51.3735
v  -11.5438 -4.0907 47.8845
v  -14.0882 -4.0907 47.8845
v  -14.0882 -4.0907 51.3735
v  -11.5438 -4.0907 51.3735
v  -20.2015 2.1471 42.5290
v  -22.7458 2.1471 42.5290
v  -22.7458 2.1471 46.0181
v  -20.2015 2.1471 46.0181
v  -20.2015 -4.0907 42.5290
v  -22.7458 -4.0907 42.5290
v  -22.7458 -4.0907 46.0181
v  -20.2015 -4.0907 46.0181
v  -19.8979 4.1007 39.1948
v  -22.6040 4.1007 39.1948
v  -22.6040 4.1007 40.5592
v  -19.8979 4.1007 40.5593
v  -19.8979 -4.0907 39.1949
v  -22.6040 -4.0907 39.1948
v  -22.6040 -4.0907 40.5592
v  -19.8979 -4.0907 40.5593
v  -15.8237 -2.0496 34.6025
v  -21.7055 -2.0496 34.6024
v  -21.7055 -2.0496 37.3850
v  -15.8237 -2.0496 37.3850
v  -15.8237 -4.0907 34.6025
v  -21.7055 -4.0907 34.6024
v  -21.7055 -4.0907 37.3850
v  -15.8237 -4.0907 37.3850
v  -20.2015 2.1471 47.8845
v  -22.7458 2.1471 47.8845
v  -22.7458 2.1471 51.3735
v  -20.2015 2.1471 51.3735
v  -20.2015 -4.0907 47.8845
v  -22.7458 -4.0907 47.8845
v  -22.7458 -4.0907 51.3735
v  -20.2015 -4.0907 51.3735
v  21.4458 -2.6856 30.3978
v  19.3459 -2.6856 30.3978
v  19.3459 -2.6856 31.8014
v  21.4458 -2.6856 31.8014
v  21.4458 -4.0907 30.3978
v  19.3459 -4.0907 30.3978
v  19.3459 -4.0907 31.8014
v  21.4458 -4.0907 31.8014
v  21.4458 -2.6856 32.5109
v  19.3459 -2.6856 32.5109
v  19.3459 -2.6856 33.3546
v  21.4458 -2.6856 33.3546
v  21.4458 -4.0907 32.5109
v  19.3459 -4.0907 32.5109
v  19.3459 -4.0907 33.3546
v  21.4458 -4.0907 33.3546
v  21.4458 -2.6856 28.8665
v  19.3459 -2.6856 28.8665
v  19.3459 -2.6856 29.7103
v  21.4458 -2.6856 29.7104
v  21.4458 -4.0907 28.8665
v  19.3459 -4.0907 28.8665
v  19.3459 -4.0907 29.7103
v  21.4458 -4.0907 29.7104
v  22.7458 -2.3198 28.8092
v  21.9247 -2.3198 28.8092
v  21.9247 -2.3198 35.4721
v  22.7458 -2.3198 35.4721
v  22.7458 -4.0907 28.8092
v  21.9247 -4.0907 28.8092
v  21.9247 -4.0907 35.4721
v  22.7458 -4.0907 35.4721
v  18.8955 -2.3198 28.8092
v  18.0742 -2.3198 28.8092
v  18.0742 -2.3198 35.4721
v  18.8955 -2.3198 35.4720
v  18.8955 -4.0907 28.8092
v  18.0742 -4.0907 28.8092
v  18.0742 -4.0907 35.4721
v  18.8955 -4.0907 35.4720
v  21.4458 -2.6856 34.0421
v  19.3459 -2.6856 34.0421
v  19.3459 -2.6856 35.4456
v  21.4458 -2.6856 35.4456
v  21.4458 -4.0907 34.0421
v  19.3459 -4.0907 34.0421
v  19.3459 -4.0907 35.4456
v  21.4458 -4.0907 35.4456
v  12.1437 -2.5905 42.3146
v  10.2603 -2.5905 42.3146
v  10.2603 -2.5905 47.8534
v  12.1437 -2.5905 47.8534
v  12.1437 -4.1006 42.3146
v  10.2603 -4.1006 42.3146
v  10.2603 -4.1006 47.8534
v  12.1437 -4.1006 47.8533
v  14.1217 -3.0868 43.3518
v  13.5259 -3.0868 43.3518
v  13.5259 -3.0868 44.6456
v  14.1217 -3.0868 44.6456
v  14.1217 -4.1006 43.3518
v  13.5259 -4.1006 43.3518
v  13.5259 -4.1006 44.6456
v  14.1217 -4.1006 44.6456
v  14.1217 -3.0868 45.1371
v  13.5259 -3.0868 45.1371
v  13.5259 -3.0868 46.4309
v  14.1217 -3.0868 46.4309
v  14.1217 -4.1006 45.1371
v  13.5259 -4.1006 45.1371
v  13.5259 -4.1006 46.4309
v  14.1217 -4.1006 46.4309
v  14.1217 -3.0868 47.0638
v  13.5259 -3.0868 47.0638
v  13.5259 -3.0868 48.3576
v  14.1217 -3.0868 48.3575
v  14.1217 -4.1006 47.0638
v  13.5259 -4.1006 47.0638
v  13.5259 -4.1006 48.3576
v  14.1217 -4.1006 48.3575
v  15.4649 -3.0868 45.1755
v  14.8690 -3.0868 45.1755
v  14.8690 -3.0868 46.4693
v  15.4649 -3.0868 46.4693
v  15.4649 -4.1006 45.1755
v  14.8690 -4.1006 45.1755
v  14.8690 -4.1006 46.4693
v  15.4649 -4.1006 46.4693
v  15.4649 -3.0868 43.2488
v  14.8690 -3.0868 43.2488
v  14.8690 -3.0868 44.5426
v  15.4649 -3.0868 44.5426
v  15.4649 -4.1006 43.2488
v  14.8690 -4.1006 43.2488
v  14.8690 -4.1006 44.5426
v  15.4649 -4.1006 44.5426
v  14.3651 -3.0153 48.9574
v  11.2370 -3.0153 48.9574
v  11.2372 -3.0153 50.4372
v  14.3651 -3.0153 50.4372
v  14.3651 -4.1006 48.9574
v  11.2370 -4.1006 48.9574
v  11.2372 -4.1006 50.4372
v  14.3651 -4.1006 50.4372
v  15.4649 -3.0868 41.4634
v  14.8690 -3.0868 41.4635
v  14.8690 -3.0868 42.7573
v  15.4649 -3.0868 42.7573
v  15.4649 -4.1006 41.4634
v  14.8690 -4.1006 41.4635
v  14.8690 -4.1006 42.7573
v  15.4649 -4.1006 42.7573
# 328 vertices

vn 0.0000 1.0000 -0.0000
vn 0.0001 0.0000 -1.0000
vn 0.0000 0.0000 1.0000
vn 1.0000 0.0000 -0.0000
vn 0.0000 0.0000 -1.0000
vn -1.0000 0.0000 -0.0000
vn -0.0001 0.0000 1.0000
vn 0.0000 -0.0000 -1.0000
vn 1.0000 0.0000 0.0000
vn -0.0000 0.0000 -1.0000
vn -0.0000 0.0000 1.0000
vn -0.0001 0.0000 -1.0000
vn 1.0000 -0.0000 -0.0000
vn 0.0001 0.0000 1.0000
vn 0.0000 -0.0000 1.0000
vn 0.0002 0.0000 1.0000
vn -1.0000 0.0000 0.0001
vn -0.0002 0.0000 -1.0000
# 18 vertex normals

vt 0.7466 0.6213 0.0000
vt 0.9777 0.6213 0.0000
vt 0.9777 0.8581 0.0000
vt 0.7466 0.8581 0.0000
vt 0.0264 0.0328 0.0000
vt 0.3525 0.0328 0.0000
vt 0.3525 0.9723 0.0000
vt 0.0264 0.9723 0.0000
vt 0.3890 0.0328 0.0000
vt 0.7152 0.0328 0.0000
vt 0.7152 0.9723 0.0000
vt 0.3890 0.9723 0.0000
# 12 texture coords

g 对象736
usemtl Material__49
s off
f 1/1/1 2/2/1 3/3/1 4/4/1 
f 5/5/2 6/6/2 2/7/2 1/8/2 
f 7/9/3 8/10/3 4/11/3 3/12/3 
f 8/5/4 5/6/4 1/7/4 4/8/4 
f 9/1/1 10/2/1 11/3/1 12/4/1 
f 13/5/5 14/6/5 10/7/5 9/8/5 
f 14/9/6 15/10/6 11/11/6 10/12/6 
f 15/9/3 16/10/3 12/11/3 11/12/3 
f 16/5/4 13/6/4 9/7/4 12/8/4 
f 17/1/1 18/2/1 19/3/1 20/4/1 
f 21/5/5 22/6/5 18/7/5 17/8/5 
f 22/9/6 23/10/6 19/11/6 18/12/6 
f 23/9/7 24/10/7 20/11/7 19/12/7 
f 24/5/4 21/6/4 17/7/4 20/8/4 
f 25/1/1 26/2/1 27/3/1 28/4/1 
f 29/5/5 30/6/5 26/7/5 25/8/5 
f 31/9/3 32/10/3 28/11/3 27/12/3 
f 32/5/4 29/6/4 25/7/4 28/8/4 
f 33/1/1 34/2/1 35/3/1 36/4/1 
f 37/5/5 38/6/5 34/7/5 33/8/5 
f 38/9/6 39/10/6 35/11/6 34/12/6 
f 39/9/3 40/10/3 36/11/3 35/12/3 
f 40/5/4 37/6/4 33/7/4 36/8/4 
f 41/1/1 42/2/1 43/3/1 44/4/1 
f 45/5/8 46/6/8 42/7/8 41/8/8 
f 46/9/6 47/10/6 43/11/6 42/12/6 
f 47/9/3 48/10/3 44/11/3 43/12/3 
f 48/5/4 45/6/4 41/7/4 44/8/4 
f 49/1/1 50/2/1 51/3/1 52/4/1 
f 53/5/8 54/6/8 50/7/8 49/8/8 
f 54/9/6 55/10/6 51/11/6 50/12/6 
f 55/9/3 56/10/3 52/11/3 51/12/3 
f 56/5/4 53/6/4 49/7/4 52/8/4 
f 57/1/1 58/2/1 59/3/1 60/4/1 
f 61/5/5 62/6/5 58/7/5 57/8/5 
f 62/9/6 63/10/6 59/11/6 58/12/6 
f 63/9/7 64/10/7 60/11/7 59/12/7 
f 64/5/9 61/6/9 57/7/9 60/8/9 
f 65/1/1 66/2/1 67/3/1 68/4/1 
f 69/5/5 70/6/5 66/7/5 65/8/5 
f 70/9/6 71/10/6 67/11/6 66/12/6 
f 71/9/3 72/10/3 68/11/3 67/12/3 
f 72/5/4 69/6/4 65/7/4 68/8/4 
f 73/1/1 74/2/1 75/3/1 76/4/1 
f 77/5/5 78/6/5 74/7/5 73/8/5 
f 78/9/6 79/10/6 75/11/6 74/12/6 
f 79/9/3 80/10/3 76/11/3 75/12/3 
f 80/5/4 77/6/4 73/7/4 76/8/4 
f 81/1/1 82/2/1 83/3/1 84/4/1 
f 85/5/10 86/6/10 82/7/10 81/8/10 
f 86/9/6 87/10/6 83/11/6 82/12/6 
f 87/9/3 88/10/3 84/11/3 83/12/3 
f 88/5/4 85/6/4 81/7/4 84/8/4 
f 89/1/1 90/2/1 91/3/1 92/4/1 
f 93/5/8 94/6/8 90/7/8 89/8/8 
f 94/9/6 95/10/6 91/11/6 90/12/6 
f 95/9/3 96/10/3 92/11/3 91/12/3 
f 96/5/4 93/6/4 89/7/4 92/8/4 
f 97/1/1 98/2/1 99/3/1 100/4/1 
f 101/5/5 102/6/5 98/7/5 97/8/5 
f 102/9/6 103/10/6 99/11/6 98/12/6 
f 103/9/3 104/10/3 100/11/3 99/12/3 
f 104/5/4 101/6/4 97/7/4 100/8/4 
f 105/1/1 106/2/1 107/3/1 108/4/1 
f 109/5/5 110/6/5 106/7/5 105/8/5 
f 110/9/6 111/10/6 107/11/6 106/12/6 
f 111/9/3 112/10/3 108/11/3 107/12/3 
f 112/5/4 109/6/4 105/7/4 108/8/4 
f 113/1/1 114/2/1 115/3/1 116/4/1 
f 117/5/5 118/6/5 114/7/5 113/8/5 
f 118/9/6 119/10/6 115/11/6 114/12/6 
f 119/9/3 120/10/3 116/11/3 115/12/3 
f 120/5/4 117/6/4 113/7/4 116/8/4 
f 121/1/1 122/2/1 123/3/1 124/4/1 
f 125/5/5 126/6/5 122/7/5 121/8/5 
f 126/9/6 127/10/6 123/11/6 122/12/6 
f 127/9/11 128/10/11 124/11/11 123/12/11 
f 128/5/4 125/6/4 121/7/4 124/8/4 
f 129/1/1 130/2/1 131/3/1 132/4/1 
f 133/5/8 134/6/8 130/7/8 129/8/8 
f 134/9/6 135/10/6 131/11/6 130/12/6 
f 135/9/11 136/10/11 132/11/11 131/12/11 
f 136/5/4 133/6/4 129/7/4 132/8/4 
f 137/1/1 138/2/1 139/3/1 140/4/1 
f 141/5/5 142/6/5 138/7/5 137/8/5 
f 142/9/6 143/10/6 139/11/6 138/12/6 
f 143/9/3 144/10/3 140/11/3 139/12/3 
f 144/5/4 141/6/4 137/7/4 140/8/4 
f 145/1/1 146/2/1 147/3/1 148/4/1 
f 149/5/12 150/6/12 146/7/12 145/8/12 
f 150/9/6 151/10/6 147/11/6 146/12/6 
f 151/9/3 152/10/3 148/11/3 147/12/3 
f 152/5/4 149/6/4 145/7/4 148/8/4 
f 153/1/1 154/2/1 155/3/1 156/4/1 
f 157/5/8 158/6/8 154/7/8 153/8/8 
f 158/9/6 159/10/6 155/11/6 154/12/6 
f 159/9/3 160/10/3 156/11/3 155/12/3 
f 160/5/13 157/6/13 153/7/13 156/8/13 
f 161/1/1 162/2/1 163/3/1 164/4/1 
f 165/5/5 166/6/5 162/7/5 161/8/5 
f 166/9/6 167/10/6 163/11/6 162/12/6 
f 167/9/11 168/10/11 164/11/11 163/12/11 
f 168/5/9 165/6/9 161/7/9 164/8/9 
f 169/1/1 170/2/1 171/3/1 172/4/1 
f 173/5/10 174/6/10 170/7/10 169/8/10 
f 174/9/6 175/10/6 171/11/6 170/12/6 
f 175/9/3 176/10/3 172/11/3 171/12/3 
f 176/5/4 173/6/4 169/7/4 172/8/4 
f 177/1/1 178/2/1 179/3/1 180/4/1 
f 181/5/5 182/6/5 178/7/5 177/8/5 
f 182/9/6 183/10/6 179/11/6 178/12/6 
f 183/9/3 184/10/3 180/11/3 179/12/3 
f 184/5/4 181/6/4 177/7/4 180/8/4 
f 185/1/1 186/2/1 187/3/1 188/4/1 
f 189/5/5 190/6/5 186/7/5 185/8/5 
f 190/9/6 191/10/6 187/11/6 186/12/6 
f 191/9/3 192/10/3 188/11/3 187/12/3 
f 192/5/4 189/6/4 185/7/4 188/8/4 
f 193/1/1 194/2/1 195/3/1 196/4/1 
f 197/5/8 198/6/8 194/7/8 193/8/8 
f 198/9/6 199/10/6 195/11/6 194/12/6 
f 199/9/11 200/10/11 196/11/11 195/12/11 
f 200/5/4 197/6/4 193/7/4 196/8/4 
f 201/1/1 202/2/1 203/3/1 204/4/1 
f 205/5/5 206/6/5 202/7/5 201/8/5 
f 206/9/6 207/10/6 203/11/6 202/12/6 
f 207/9/3 208/10/3 204/11/3 203/12/3 
f 208/5/4 205/6/4 201/7/4 204/8/4 
f 209/1/1 210/2/1 211/3/1 212/4/1 
f 213/5/5 214/6/5 210/7/5 209/8/5 
f 214/9/6 215/10/6 211/11/6 210/12/6 
f 215/9/3 216/10/3 212/11/3 211/12/3 
f 216/5/4 213/6/4 209/7/4 212/8/4 
f 217/1/1 218/2/1 219/3/1 220/4/1 
f 221/5/5 222/6/5 218/7/5 217/8/5 
f 222/9/6 223/10/6 219/11/6 218/12/6 
f 223/9/3 224/10/3 220/11/3 219/12/3 
f 224/5/4 221/6/4 217/7/4 220/8/4 
f 225/1/1 226/2/1 227/3/1 228/4/1 
f 229/5/5 230/6/5 226/7/5 225/8/5 
f 230/9/6 231/10/6 227/11/6 226/12/6 
f 231/9/3 232/10/3 228/11/3 227/12/3 
f 232/5/4 229/6/4 225/7/4 228/8/4 
f 233/1/1 234/2/1 235/3/1 236/4/1 
f 237/5/5 238/6/5 234/7/5 233/8/5 
f 238/9/6 239/10/6 235/11/6 234/12/6 
f 239/9/11 240/10/11 236/11/11 235/12/11 
f 240/5/4 237/6/4 233/7/4 236/8/4 
f 241/1/1 242/2/1 243/3/1 244/4/1 
f 245/5/5 246/6/5 242/7/5 241/8/5 
f 246/9/6 247/10/6 243/11/6 242/12/6 
f 247/9/3 248/10/3 244/11/3 243/12/3 
f 248/5/4 245/6/4 241/7/4 244/8/4 
f 249/1/1 250/2/1 251/3/1 252/4/1 
f 253/5/5 254/6/5 250/7/5 249/8/5 
f 254/9/6 255/10/6 251/11/6 250/12/6 
f 255/9/14 256/10/14 252/11/14 251/12/14 
f 256/5/4 253/6/4 249/7/4 252/8/4 
f 257/1/1 258/2/1 259/3/1 260/4/1 
f 261/5/5 262/6/5 258/7/5 257/8/5 
f 262/9/6 263/10/6 259/11/6 258/12/6 
f 263/9/3 264/10/3 260/11/3 259/12/3 
f 264/5/4 261/6/4 257/7/4 260/8/4 
f 265/1/1 266/2/1 267/3/1 268/4/1 
f 269/5/5 270/6/5 266/7/5 265/8/5 
f 270/9/6 271/10/6 267/11/6 266/12/6 
f 271/9/15 272/10/15 268/11/15 267/12/15 
f 272/5/4 269/6/4 265/7/4 268/8/4 
f 273/1/1 274/2/1 275/3/1 276/4/1 
f 277/5/5 278/6/5 274/7/5 273/8/5 
f 278/9/6 279/10/6 275/11/6 274/12/6 
f 279/9/3 280/10/3 276/11/3 275/12/3 
f 280/5/4 277/6/4 273/7/4 276/8/4 
f 281/1/1 282/2/1 283/3/1 284/4/1 
f 285/5/5 286/6/5 282/7/5 281/8/5 
f 286/9/6 287/10/6 283/11/6 282/12/6 
f 287/9/3 288/10/3 284/11/3 283/12/3 
f 288/5/4 285/6/4 281/7/4 284/8/4 
f 289/1/1 290/2/1 291/3/1 292/4/1 
f 293/5/5 294/6/5 290/7/5 289/8/5 
f 294/9/6 295/10/6 291/11/6 290/12/6 
f 295/9/16 296/10/16 292/11/16 291/12/16 
f 296/5/4 293/6/4 289/7/4 292/8/4 
f 297/1/1 298/2/1 299/3/1 300/4/1 
f 301/5/5 302/6/5 298/7/5 297/8/5 
f 302/9/6 303/10/6 299/11/6 298/12/6 
f 303/9/3 304/10/3 300/11/3 299/12/3 
f 304/5/4 301/6/4 297/7/4 300/8/4 
f 305/1/1 306/2/1 307/3/1 308/4/1 
f 309/5/5 310/6/5 306/7/5 305/8/5 
f 310/9/6 311/10/6 307/11/6 306/12/6 
f 311/9/3 312/10/3 308/11/3 307/12/3 
f 312/5/4 309/6/4 305/7/4 308/8/4 
f 313/1/1 314/2/1 315/3/1 316/4/1 
f 317/5/5 318/6/5 314/7/5 313/8/5 
f 318/9/17 319/10/17 315/11/17 314/12/17 
f 319/9/3 320/10/3 316/11/3 315/12/3 
f 320/5/4 317/6/4 313/7/4 316/8/4 
f 321/1/1 322/2/1 323/3/1 324/4/1 
f 325/5/18 326/6/18 322/7/18 321/8/18 
f 326/9/6 327/10/6 323/11/6 322/12/6 
f 327/9/3 328/10/3 324/11/3 323/12/3 
f 328/5/4 325/6/4 321/7/4 324/8/4 
# 203 polygons

